<?xml version="1.0" standalone="no"?>
<svg viewBox="0 0 200 200" xmlns="http://www.w3.org/2000/svg">
  <path fill="#E8DAFF" d="M39.6,-65.5C51,-54.2,59.9,-42.8,66.5,-29.9C73,-17,77.3,-2.6,76.5,11.8C75.7,26.2,69.7,40.7,60.6,54.1C51.5,67.5,39.2,79.8,25.1,82.7C10.9,85.6,-5.2,79.2,-20.9,73.5C-36.5,67.8,-51.6,62.8,-61.9,52.7C-72.2,42.5,-77.7,27.3,-78.5,12.2C-79.2,-2.9,-75.2,-17.7,-68.4,-30.7C-61.6,-43.6,-51.9,-54.7,-40.1,-65.7C-28.2,-76.8,-14.1,-87.7,0,-87.7C14.1,-87.7,28.1,-76.7,39.6,-65.5Z" transform="translate(100 100)" />
</svg>
